<?xml version="1.0" encoding="utf-8"?>
<svg version="1.1" xmlns="http://www.w3.org/2000/svg" xmlns:xlink="http://www.w3.org/1999/xlink" x="0px" y="0px" width="72px"
	 height="72px" viewBox="0 0 72 72" style="enable-background:new 0 0 72 72;" xml:space="preserve">
<style type="text/css">
	.st0{fill:#FFCC00;}
	.st1{fill:#FF0000;}
</style>
<g id="Logo">
	<rect x="0" y="0" class="st0" width="72" height="72"/>
	<polygon class="st1" points="34,32.3 34,19 19.7,19 19.7,29.1 10,29.1 10,42.9 19.7,42.9 19.7,53 34,53 34,39.7 30.6,39.7 
		30.6,49.8 23.1,49.8 23.1,39.7 13.4,39.7 13.4,32.3 23.1,32.3 23.1,22.2 30.6,22.2 30.6,32.3 	"/>
	<path d="M53.56234,31.10526c0,2.41272-1.99154,4.29475-4.51723,4.29475H45.2v-8.3h3.84511
		C51.66802,27.1,53.56234,28.78889,53.56234,31.10526z M50.69666,19H36v34h9.2V42.9h5.49666
		c6.75131,0,11.9971-5.15137,11.9971-11.8057C62.69376,24.39136,57.35099,19,50.69666,19z"/>
</g>
</svg>
